<?xml version="1.0" encoding="UTF-8" standalone="no"?>
<svg
   version="1.1"
   id="svg10"
   sodipodi:docname="logo-3.svg"
   x="0px"
   y="0px"
   viewBox="0 0 65536 65536"
   xml:space="preserve"
   inkscape:version="1.3 (0e150ed6c4, 2023-07-21)"
   inkscape:export-filename="logo-3-plain.png"
   inkscape:export-xdpi="96"
   inkscape:export-ydpi="96"
   width="65536"
   height="65536"
   xmlns:inkscape="http://www.inkscape.org/namespaces/inkscape"
   xmlns:sodipodi="http://sodipodi.sourceforge.net/DTD/sodipodi-0.dtd"
   xmlns="http://www.w3.org/2000/svg"
   xmlns:svg="http://www.w3.org/2000/svg"><defs
     id="defs1" /><style
     type="text/css"
     id="style1">.st0{fill:#6FBCF0;}&#10;.st1{fill-rule:evenodd;clip-rule:evenodd;fill:#FFFFFF;stroke:#FFFFFF;stroke-width:5.8052;stroke-opacity:0;}&#10;</style><sodipodi:namedview
     inkscape:zoom="1.6388889"
     inkscape:cx="74.745762"
     inkscape:cy="91.525423"
     inkscape:window-width="1920"
     inkscape:window-height="1010"
     inkscape:window-x="-6"
     inkscape:window-y="-6"
     inkscape:window-maximized="1"
     inkscape:current-layer="svg10"
     id="namedview1"
     pagecolor="#ffffff"
     bordercolor="#000000"
     borderopacity="0.25"
     inkscape:showpageshadow="2"
     inkscape:pageopacity="0.0"
     inkscape:pagecheckerboard="0"
     inkscape:deskcolor="#d1d1d1" /><circle
     id="path1579"
     class="st0"
     cx="128"
     cy="128"
     r="128"
     style="fill:#8284e5;fill-opacity:1" /><path
     id="glass"
     d="m 181.31795,92.94183 -12.88067,-3.013931 c -5.15458,-1.310432 -8.28043,-5.389738 -8.28043,-9.724247 V 37.097208 c 0,-5.544142 -5.97206,-10.080256 -13.05956,-10.080256 h -38.65923 c -7.08757,0 -12.912431,4.536184 -12.886459,10.080256 l 0.201903,43.106444 c 0.02034,4.334456 -3.810094,8.202053 -8.96466,9.613297 l -11.276379,3.225669 c -10.56686,2.721676 -13.800714,1.482524 -13.800714,10.151522 v 104.23515 c 0,11.08828 8.450586,17.14908 21.364926,17.14908 h 92.908763 c 14.17504,0 19.13321,-5.46747 19.13321,-16.55572 V 105.56751 c 0,-8.669008 -3.23384,-9.803216 -13.8007,-12.62568 z m -107.489642,9.65404 13.987863,-2.57745 C 98.793524,96.494182 106.16793,94.250329 106.16793,81.983683 V 58.535444 l 44.49467,0.175828 V 83.17037 c 0,9.100168 5.91337,13.585723 16.72082,16.422231 l 14.98829,3.377149 1.19173,110.73961 -110.296564,0.63078 z"
     style="fill:#ffffff;stroke-width:99.2853"
     sodipodi:nodetypes="ccssssssccsssssscccsccsccccc" /><path
     id="path8"
     class="st1"
     d="m 93.784451,186.31553 c 6.811259,11.46083 19.050259,18.327 32.672809,18.327 13.62251,0 25.8615,-6.86617 32.67273,-18.327 6.81128,-11.46084 6.81128,-25.14158 0,-36.60244 l -28.73498,-48.3214 c -1.75602,-2.94264 -6.1195,-2.94264 -7.87553,0 l -28.735029,48.3214 c -6.864473,11.46086 -6.864473,25.1416 0,36.60244 z m 24.584419,-61.95054 6.11949,-10.3251 c 0.85141,-1.44552 3.08635,-1.44552 3.93776,0 l 23.57335,39.64833 c 4.31027,7.27922 5.16168,15.69414 2.4478,23.43796 -0.26607,-1.239 -0.69177,-2.52964 -1.22388,-3.82027 -3.24599,-8.00193 -10.64261,-14.14537 -21.92376,-18.2754 -7.76911,-2.8394 -12.71791,-7.07266 -14.68678,-12.49336 -2.55424,-7.02105 0.15964,-14.66163 1.75602,-18.17216 z m -9.57837,20.80504 C 0,0 0,0 108.7905,145.17003 Z"
     style="fill:#ffffff;fill-opacity:1"
     sodipodi:nodetypes="csscccccccccccccccc" /></svg>
