<?xml version="1.0" encoding="UTF-8" standalone="no"?>
<svg
   version="1.1"
   id="svg10"
   sodipodi:docname="logo-4.svg"
   x="0px"
   y="0px"
   viewBox="0 0 256 256"
   style="enable-background:new 0 0 256 256;"
   xml:space="preserve"
   inkscape:version="1.3 (0e150ed6c4, 2023-07-21)"
   inkscape:export-filename="logo-3-plain.svg"
   inkscape:export-xdpi="96"
   inkscape:export-ydpi="96"
   xmlns:inkscape="http://www.inkscape.org/namespaces/inkscape"
   xmlns:sodipodi="http://sodipodi.sourceforge.net/DTD/sodipodi-0.dtd"
   xmlns="http://www.w3.org/2000/svg"
   xmlns:svg="http://www.w3.org/2000/svg"><defs
     id="defs1" /><style
     type="text/css"
     id="style1">.st0{fill:#6FBCF0;}&#10;.st1{fill-rule:evenodd;clip-rule:evenodd;fill:#FFFFFF;stroke:#FFFFFF;stroke-width:5.8052;stroke-opacity:0;}&#10;</style><sodipodi:namedview
     inkscape:zoom="1.6388889"
     inkscape:cx="9.4576271"
     inkscape:cy="50.644067"
     inkscape:window-width="1920"
     inkscape:window-height="1010"
     inkscape:window-x="-6"
     inkscape:window-y="-6"
     inkscape:window-maximized="1"
     inkscape:current-layer="svg10"
     id="namedview1"
     pagecolor="#ffffff"
     bordercolor="#000000"
     borderopacity="0.25"
     inkscape:showpageshadow="2"
     inkscape:pageopacity="0.0"
     inkscape:pagecheckerboard="0"
     inkscape:deskcolor="#d1d1d1" /><circle
     id="path1579"
     class="st0"
     cx="128"
     cy="128"
     r="128" /><path
     id="glass"
     d="m 181.31795,92.94183 -12.88067,-3.013931 c -5.15458,-1.310432 -8.28043,-5.389738 -8.28043,-9.724247 V 37.097208 c 0,-5.544142 -5.97206,-10.080256 -13.05956,-10.080256 h -38.65923 c -7.08757,0 -12.912431,4.536184 -12.886459,10.080256 l 0.201903,43.106444 c 0.02034,4.334456 -3.810094,8.202053 -8.96466,9.613297 l -11.276379,3.225669 c -10.56686,2.721676 -13.800714,1.482524 -13.800714,10.151522 v 104.23515 c 0,11.08828 8.450586,17.14908 21.364926,17.14908 h 92.908763 c 14.17504,0 19.13321,-5.46747 19.13321,-16.55572 V 105.56751 c 0,-8.669008 -3.23384,-9.803216 -13.8007,-12.62568 z"
     style="fill:#ffffff;stroke-width:99.2853"
     sodipodi:nodetypes="ccssssssccssssssc" /><path
     id="path8"
     class="st1"
     d="m 92.825485,191.05031 c 7.074926,11.51368 19.787715,18.4115 33.937605,18.4115 14.14985,0 26.86263,-6.89782 33.93752,-18.4115 7.07496,-11.51369 7.07496,-25.25751 0,-36.77121 l -29.84734,-48.54421 c -1.82399,-2.95621 -6.35639,-2.95621 -8.1804,0 L 92.825485,154.2791 c -7.130204,11.5137 -7.130204,25.25752 0,36.77121 z m 25.536105,-62.23619 6.35638,-10.37271 c 0.88437,-1.45219 3.20583,-1.45219 4.0902,0 l 24.4859,39.83115 c 4.47712,7.31278 5.36149,15.7665 2.54255,23.54603 -0.27637,-1.24471 -0.71855,-2.54131 -1.27126,-3.83789 -3.37164,-8.03882 -11.05459,-14.21059 -22.77245,-18.35966 -8.06986,-2.8525 -13.21023,-7.10528 -15.25532,-12.55097 -2.65311,-7.05342 0.16582,-14.72924 1.824,-18.25595 z m -10.88878,17.6336 -7.24078,11.82484 c -5.527263,9.02426 -5.527263,19.76001 0,28.78426 5.52734,9.02421 15.47647,14.36617 26.53106,14.36617 7.35128,0 14.20512,-2.38571 19.62186,-6.58665 0.71856,-1.65965 2.87421,-7.72766 0.16581,-14.00316 -2.48727,-5.80872 -8.45675,-10.42454 -17.79786,-13.74381 -10.50186,-3.73417 -17.3557,-9.59473 -20.34047,-17.37428 -0.3869,-1.08911 -0.66323,-2.17824 -0.93962,-3.26737 z"
     style="fill:#6fbcf0;fill-opacity:1" /></svg>
